<?xml version="1.0" encoding="UTF-8" standalone="no"?>
<!DOCTYPE svg PUBLIC "-//W3C//DTD SVG 1.1//EN"
 "http://www.w3.org/Graphics/SVG/1.1/DTD/svg11.dtd">
<!-- Generated by graphviz version 2.38.0 (20140413.2041)
 -->
<!-- Title: result Pages: 1 -->
<svg width="1572pt" height="188pt"
 viewBox="0.00 0.00 1572.48 188.00" xmlns="http://www.w3.org/2000/svg" xmlns:xlink="http://www.w3.org/1999/xlink">
<g id="graph0" class="graph" transform="scale(1 1) rotate(0) translate(4 184)">
<title>result</title>
<polygon fill="white" stroke="none" points="-4,4 -4,-184 1568.48,-184 1568.48,4 -4,4"/>
<!-- /unix/public/cw4a.html -->
<g id="node1" class="node"><title>/unix/public/cw4a.html</title>
<ellipse fill="none" stroke="black" cx="1054.84" cy="-162" rx="92.8835" ry="18"/>
<text text-anchor="middle" x="1054.84" y="-158.3" font-family="Times,serif" font-size="14.00">/unix/public/cw4a.html</text>
</g>
<!-- /unix/public/cw4aWorklistExample.txt -->
<g id="node2" class="node"><title>/unix/public/cw4aWorklistExample.txt</title>
<ellipse fill="none" stroke="black" cx="148.837" cy="-90" rx="148.674" ry="18"/>
<text text-anchor="middle" x="148.837" y="-86.3" font-family="Times,serif" font-size="14.00">/unix/public/cw4aWorklistExample.txt</text>
</g>
<!-- /unix/public/cw4a.html&#45;&gt;/unix/public/cw4aWorklistExample.txt -->
<g id="edge1" class="edge"><title>/unix/public/cw4a.html&#45;&gt;/unix/public/cw4aWorklistExample.txt</title>
<path fill="none" stroke="black" d="M967.235,-155.831C827.465,-147.351 545.433,-129.282 306.837,-108 292.882,-106.755 278.247,-105.336 263.75,-103.859"/>
<polygon fill="black" stroke="black" points="264.051,-100.372 253.745,-102.829 263.334,-107.335 264.051,-100.372"/>
</g>
<!-- /unix/public/cw4aWorklistExample2.txt -->
<g id="node3" class="node"><title>/unix/public/cw4aWorklistExample2.txt</title>
<ellipse fill="none" stroke="black" cx="468.837" cy="-90" rx="153.273" ry="18"/>
<text text-anchor="middle" x="468.837" y="-86.3" font-family="Times,serif" font-size="14.00">/unix/public/cw4aWorklistExample2.txt</text>
</g>
<!-- /unix/public/cw4a.html&#45;&gt;/unix/public/cw4aWorklistExample2.txt -->
<g id="edge2" class="edge"><title>/unix/public/cw4a.html&#45;&gt;/unix/public/cw4aWorklistExample2.txt</title>
<path fill="none" stroke="black" d="M977.926,-151.813C876.85,-139.739 698.522,-118.437 582.025,-104.521"/>
<polygon fill="black" stroke="black" points="582.345,-101.034 572,-103.323 581.514,-107.985 582.345,-101.034"/>
</g>
<!-- /unix/public/cw4aGraphviz.svg -->
<g id="node4" class="node"><title>/unix/public/cw4aGraphviz.svg</title>
<ellipse fill="none" stroke="black" cx="761.837" cy="-90" rx="121.578" ry="18"/>
<text text-anchor="middle" x="761.837" y="-86.3" font-family="Times,serif" font-size="14.00">/unix/public/cw4aGraphviz.svg</text>
</g>
<!-- /unix/public/cw4a.html&#45;&gt;/unix/public/cw4aGraphviz.svg -->
<g id="edge3" class="edge"><title>/unix/public/cw4a.html&#45;&gt;/unix/public/cw4aGraphviz.svg</title>
<path fill="none" stroke="black" d="M998.69,-147.586C951.488,-136.309 883.756,-120.127 832.803,-107.954"/>
<polygon fill="black" stroke="black" points="833.387,-104.496 822.848,-105.576 831.761,-111.304 833.387,-104.496"/>
</g>
<!-- /unix/public/cw4aWorklistExample3.txt -->
<g id="node5" class="node"><title>/unix/public/cw4aWorklistExample3.txt</title>
<ellipse fill="none" stroke="black" cx="1054.84" cy="-90" rx="153.273" ry="18"/>
<text text-anchor="middle" x="1054.84" y="-86.3" font-family="Times,serif" font-size="14.00">/unix/public/cw4aWorklistExample3.txt</text>
</g>
<!-- /unix/public/cw4a.html&#45;&gt;/unix/public/cw4aWorklistExample3.txt -->
<g id="edge4" class="edge"><title>/unix/public/cw4a.html&#45;&gt;/unix/public/cw4aWorklistExample3.txt</title>
<path fill="none" stroke="black" d="M1054.84,-143.697C1054.84,-135.983 1054.84,-126.712 1054.84,-118.112"/>
<polygon fill="black" stroke="black" points="1058.34,-118.104 1054.84,-108.104 1051.34,-118.104 1058.34,-118.104"/>
</g>
<!-- /unix/public/spider1.html -->
<g id="node6" class="node"><title>/unix/public/spider1.html</title>
<ellipse fill="none" stroke="black" cx="1382.84" cy="-90" rx="100.983" ry="18"/>
<text text-anchor="middle" x="1382.84" y="-86.3" font-family="Times,serif" font-size="14.00">/unix/public/spider1.html</text>
</g>
<!-- /unix/public/cw4a.html&#45;&gt;/unix/public/spider1.html -->
<g id="edge5" class="edge"><title>/unix/public/cw4a.html&#45;&gt;/unix/public/spider1.html</title>
<path fill="none" stroke="black" d="M1115,-148.161C1170.24,-136.371 1252.2,-118.881 1310.89,-106.355"/>
<polygon fill="black" stroke="black" points="1311.78,-109.743 1320.83,-104.233 1310.32,-102.898 1311.78,-109.743"/>
</g>
<!-- /unix/public/spider2.html -->
<g id="node7" class="node"><title>/unix/public/spider2.html</title>
<ellipse fill="none" stroke="black" cx="1244.84" cy="-18" rx="100.983" ry="18"/>
<text text-anchor="middle" x="1244.84" y="-14.3" font-family="Times,serif" font-size="14.00">/unix/public/spider2.html</text>
</g>
<!-- /unix/public/cw4a.html&#45;&gt;/unix/public/spider2.html -->
<g id="edge6" class="edge"><title>/unix/public/cw4a.html&#45;&gt;/unix/public/spider2.html</title>
<path fill="none" stroke="black" d="M1126.66,-150.389C1155.11,-142.859 1186.1,-129.99 1207.84,-108 1224.15,-91.499 1230.97,-65.5963 1235.4,-45.9811"/>
<polygon fill="black" stroke="black" points="1238.84,-46.6265 1237.59,-36.1055 1232.01,-45.1088 1238.84,-46.6265"/>
</g>
<!-- /unix/public/spider1.html&#45;&gt;/unix/public/spider2.html -->
<g id="edge8" class="edge"><title>/unix/public/spider1.html&#45;&gt;/unix/public/spider2.html</title>
<path fill="none" stroke="black" d="M1345.76,-73.1159C1325.47,-63.3914 1300.53,-50.8268 1280.47,-40.2526"/>
<polygon fill="black" stroke="black" points="1282.1,-37.157 1271.63,-35.5516 1278.82,-43.3373 1282.1,-37.157"/>
</g>
<!-- /rtos/public/index.html -->
<g id="node8" class="node"><title>/rtos/public/index.html</title>
<ellipse fill="none" stroke="black" cx="1472.84" cy="-18" rx="91.784" ry="18"/>
<text text-anchor="middle" x="1472.84" y="-14.3" font-family="Times,serif" font-size="14.00">/rtos/public/index.html</text>
</g>
<!-- /unix/public/spider1.html&#45;&gt;/rtos/public/index.html -->
<g id="edge7" class="edge"><title>/unix/public/spider1.html&#45;&gt;/rtos/public/index.html</title>
<path fill="none" stroke="black" d="M1404.62,-72.055C1416.32,-62.9604 1430.89,-51.6262 1443.56,-41.7714"/>
<polygon fill="black" stroke="black" points="1445.82,-44.4496 1451.56,-35.5475 1441.52,-38.9242 1445.82,-44.4496"/>
</g>
<!-- /unix/public/spider2.html&#45;&gt;/unix/public/cw4a.html -->
<g id="edge11" class="edge"><title>/unix/public/spider2.html&#45;&gt;/unix/public/cw4a.html</title>
<path fill="none" stroke="black" d="M1250.41,-36.1055C1251.12,-55.982 1245.08,-88.5334 1225.84,-108 1204.25,-129.837 1173.54,-142.679 1144.06,-150.23"/>
<polygon fill="black" stroke="black" points="1143.04,-146.874 1134.12,-152.593 1144.66,-153.684 1143.04,-146.874"/>
</g>
<!-- /unix/public/spider2.html&#45;&gt;/unix/public/spider1.html -->
<g id="edge10" class="edge"><title>/unix/public/spider2.html&#45;&gt;/unix/public/spider1.html</title>
<path fill="none" stroke="black" d="M1281.79,-34.8274C1302.19,-44.5971 1327.3,-57.2494 1347.43,-67.8693"/>
<polygon fill="black" stroke="black" points="1345.83,-70.9805 1356.3,-72.5881 1349.12,-64.8008 1345.83,-70.9805"/>
</g>
<!-- /unix/public/spider2.html&#45;&gt;/unix/public/spider2.html -->
<g id="edge9" class="edge"><title>/unix/public/spider2.html&#45;&gt;/unix/public/spider2.html</title>
<path fill="none" stroke="black" d="M1312.27,-31.391C1340.07,-32.2723 1363.58,-27.8086 1363.58,-18 1363.58,-9.41748 1345.58,-4.92716 1322.46,-4.52905"/>
<polygon fill="black" stroke="black" points="1322.25,-1.03052 1312.27,-4.60897 1322.3,-8.0303 1322.25,-1.03052"/>
</g>
</g>
</svg>
